# xmcd CD database file
#
# Track frame offsets:
#	150
#	29358
#	55679
#	73007
#	96559
#	135046
#	165665
#	193031
#	212497
#	232594
#	248880
#	270949
#
# Disc length: 3862 seconds
#
# Revision: 0
# Processed by: cddbd v1.5.2PL0 Copyright (c) Steve Scherf et al.
# Submitted via: CDex 1.51
#
DISCID=970f140c
DTITLE=Dire Straits - Dire Straits
DYEAR=2006
DGENRE=Country
TTITLE0=Calling Elvis
TTITLE1=Communiqué
TTITLE2=Fade to black
TTITLE3=Heavy fuel
TTITLE4=Money for nothing
TTITLE5=Private investigation
TTITLE6=Romeo and Juliette
TTITLE7=The bug
TTITLE8=Ticket to heaven
TTITLE9=Twisting by the pool
TTITLE10=Two young lovers
TTITLE11=Walk of life
EXTD=YEAR: 2006
EXTT0=
EXTT1=
EXTT2=
EXTT3=
EXTT4=
EXTT5=
EXTT6=
EXTT7=
EXTT8=
EXTT9=
EXTT10=
EXTT11=
PLAYORDER=
